<svg xmlns="http://www.w3.org/2000/svg" width="59.578" height="51.619" viewBox="0 0 59.578 51.619">
  <g id="_" data-name="”" transform="translate(11944.43 11088.595)">
    <path id="パス_3830" data-name="パス 3830" d="M42.936-164.506a10.68,10.68,0,0,1,3.437-8.081,11.889,11.889,0,0,1,8.5-3.256,10.648,10.648,0,0,1,8.2,3.739,13.34,13.34,0,0,1,3.377,9.287,25.355,25.355,0,0,1-1.93,9.166,64.58,64.58,0,0,1-5.005,10.01,110.01,110.01,0,0,1-6.935,10.071q-3.859,5.005-7.839,9.347L41.488-127a73.337,73.337,0,0,0,8.985-12.784,37.019,37.019,0,0,0,4.4-12.9,13.617,13.617,0,0,1-8.442-3.558A10.679,10.679,0,0,1,42.936-164.506Zm-34.493,0a10.772,10.772,0,0,1,3.377-8.081,11.68,11.68,0,0,1,8.442-3.256,10.648,10.648,0,0,1,8.2,3.739,13.34,13.34,0,0,1,3.377,9.287,25.355,25.355,0,0,1-1.93,9.166,64.58,64.58,0,0,1-5.005,10.01,110.011,110.011,0,0,1-6.935,10.071q-3.859,5.005-7.839,9.347L6.875-127a76.024,76.024,0,0,0,9.045-12.784,34.557,34.557,0,0,0,4.342-12.9,13.485,13.485,0,0,1-8.322-3.558A10.679,10.679,0,0,1,8.442-164.506Z" transform="translate(-11951.305 -10912.752)" fill="#ddd"/>
  </g>
</svg>
