<svg xmlns="http://www.w3.org/2000/svg" xmlns:xlink="http://www.w3.org/1999/xlink" width="75.24" height="75.636" viewBox="0 0 75.24 75.636">
  <defs>
    <clipPath id="clip-path">
      <circle id="楕円形_20" data-name="楕円形 20" cx="37.62" cy="37.62" r="37.62" transform="translate(120 8080.501)" fill="#d0dee5"/>
    </clipPath>
    <clipPath id="clip-path-2">
      <rect id="長方形_3155" data-name="長方形 3155" width="57.089" height="60.43" fill="none"/>
    </clipPath>
  </defs>
  <g id="dansei" transform="translate(-120 -6467.876)">
    <circle id="楕円形_6" data-name="楕円形 6" cx="37.62" cy="37.62" r="37.62" transform="translate(120 6467.876)" fill="#fff"/>
    <g id="マスクグループ_96" data-name="マスクグループ 96" transform="translate(0 -1612.229)" clip-path="url(#clip-path)">
      <g id="グループ_1275" data-name="グループ 1275" transform="translate(129.122 8095.31)">
        <g id="グループ_1274" data-name="グループ 1274" transform="translate(0 0.001)" clip-path="url(#clip-path-2)">
          <path id="パス_3695" data-name="パス 3695" d="M52.332,46.193a128.317,128.317,0,0,1-13.669-8.222c-.057-.065-.116-.127-.176-.188-.569-.577-1.2-2.178-2.155-3.169h-.146a21.61,21.61,0,0,1,.006-2.752c.135-.652.477-1.016.879-2.2.54-2.285.863-3.273.863-3.273,2.976-1.017,2.971-3.75,3.146-4.756a8.259,8.259,0,0,0,.254-2.4,1.6,1.6,0,0,0-.921-1.26s-.244.424.275-1.25a11.651,11.651,0,0,0,.339-4.237,12.347,12.347,0,0,0-.667-2.277s-.477-2.722-1.049-2.987a.673.673,0,0,0,.053-.688,1.906,1.906,0,0,0-.477-.657.783.783,0,0,1,0-.519,2,2,0,0,0-.667-.72c-.445-1.356-1.335-1.462-1.621-1.716a1.165,1.165,0,0,1-.35-.593,3.123,3.123,0,0,0-.367-.117.917.917,0,0,1-.242-.091c-.315-.171-.2-.062-.482-.088-.275-.169-.275-.117-.3-.551-.614-.328-.72-.212-.847-.2a.619.619,0,0,0-.53-.35s-.064.127-.159.117S33.19.83,33.19.83A1.422,1.422,0,0,0,32.9.618c-.127-.016-.207.1-.278.191-.342-.008-.413.207-.58.2s-.667-.381-.858-.437a3.825,3.825,0,0,0-.81,0c-.437-.643-1.676-.437-1.8-.389-1.287-.357-1.776.27-2.86.469a9.029,9.029,0,0,0-3.464,1.065l-1.557.81a2.782,2.782,0,0,1-.866.159c-.373-.016-.493.3-.535.508-.641.138-.27.688-.27.688a.645.645,0,0,0-.217-.005c-.074.021.032.344.069.508a.715.715,0,0,0-.4.7,1.535,1.535,0,0,0-1.08,1.112c-.4.784-.577.805-.662,1.091a3.987,3.987,0,0,0-.117.667,4.916,4.916,0,0,0,.079,1.2,1.652,1.652,0,0,1-.085.942c-.248.627-.062-.079-.338,1.214a9.6,9.6,0,0,0-.117,3.3,5.093,5.093,0,0,0,.429,2.415,2.023,2.023,0,0,1,.392,1.123,1.134,1.134,0,0,0-.99.863,3.165,3.165,0,0,0-.034,1.239,11.536,11.536,0,0,1,.32,1.525,4.956,4.956,0,0,0,3.22,4.883l.651,3.008a21.211,21.211,0,0,1,.846,2.172c.037.257.075,1.918.065,2.781h-.152c-.957.991-1.586,2.592-2.155,3.169-.06.061-.12.123-.176.188A128.317,128.317,0,0,1,4.894,46.193,8.643,8.643,0,0,0,.072,53.946V60.5H57.154V53.946a8.643,8.643,0,0,0-4.822-7.753" transform="translate(-0.069 -0.07)" fill="#aeaeae"/>
          <path id="パス_3696" data-name="パス 3696" d="M52.332,46.193a128.317,128.317,0,0,1-13.669-8.222c-.057-.065-.116-.127-.176-.188-.569-.577-1.2-2.178-2.155-3.169h-.146a21.61,21.61,0,0,1,.006-2.752c.135-.652.477-1.016.879-2.2.54-2.285.863-3.273.863-3.273,2.976-1.017,2.971-3.75,3.146-4.756a8.259,8.259,0,0,0,.254-2.4,1.6,1.6,0,0,0-.921-1.26s-.244.424.275-1.25a11.651,11.651,0,0,0,.339-4.237,12.347,12.347,0,0,0-.667-2.277s-.477-2.722-1.049-2.987a.673.673,0,0,0,.053-.688,1.906,1.906,0,0,0-.477-.657.783.783,0,0,1,0-.519,2,2,0,0,0-.667-.72c-.445-1.356-1.335-1.462-1.621-1.716a1.165,1.165,0,0,1-.35-.593,3.123,3.123,0,0,0-.367-.117.917.917,0,0,1-.242-.091c-.315-.171-.2-.062-.482-.088-.275-.169-.275-.117-.3-.551-.614-.328-.72-.212-.847-.2a.619.619,0,0,0-.53-.35s-.064.127-.159.117S33.19.83,33.19.83A1.422,1.422,0,0,0,32.9.618c-.127-.016-.207.1-.278.191-.342-.008-.413.207-.58.2s-.667-.381-.858-.437a3.825,3.825,0,0,0-.81,0c-.437-.643-1.676-.437-1.8-.389-1.287-.357-1.776.27-2.86.469a9.029,9.029,0,0,0-3.464,1.065l-1.557.81a2.782,2.782,0,0,1-.866.159c-.373-.016-.493.3-.535.508-.641.138-.27.688-.27.688a.645.645,0,0,0-.217-.005c-.074.021.032.344.069.508a.715.715,0,0,0-.4.7,1.535,1.535,0,0,0-1.08,1.112c-.4.784-.577.805-.662,1.091a3.987,3.987,0,0,0-.117.667,4.916,4.916,0,0,0,.079,1.2,1.652,1.652,0,0,1-.085.942c-.248.627-.062-.079-.338,1.214a9.6,9.6,0,0,0-.117,3.3,5.093,5.093,0,0,0,.429,2.415,2.023,2.023,0,0,1,.392,1.123,1.134,1.134,0,0,0-.99.863,3.165,3.165,0,0,0-.034,1.239,11.536,11.536,0,0,1,.32,1.525,4.956,4.956,0,0,0,3.22,4.883l.651,3.008a21.211,21.211,0,0,1,.846,2.172c.037.257.075,1.918.065,2.781h-.152c-.957.991-1.586,2.592-2.155,3.169-.06.061-.12.123-.176.188A128.317,128.317,0,0,1,4.894,46.193,8.643,8.643,0,0,0,.072,53.946V60.5H57.154V53.946A8.643,8.643,0,0,0,52.332,46.193Z" transform="translate(-0.069 -0.07)" fill="none" stroke="#fff" stroke-miterlimit="10" stroke-width="0.145"/>
        </g>
      </g>
    </g>
  </g>
</svg>
