<svg xmlns="http://www.w3.org/2000/svg" width="51.478" height="34.488" viewBox="0 0 51.478 34.488"><g transform="translate(-304.261 -724.309)"><g transform="translate(-556.569 427.106)"><path d="M963.083,330.286c-.016-6.164-1.744-31.137-28.6-33.079a1.381,1.381,0,0,0-1.178.524c-.7.88-1.305,1.673-2.009,2.553a1.385,1.385,0,0,0-.07,1.634,33.34,33.34,0,0,0,9.369,9.324,1.379,1.379,0,0,0,1.734-.179l2.433-2.434a26.228,26.228,0,0,1,13.108,21.736,1.387,1.387,0,0,0,1.4,1.326l2.44-.024A1.38,1.38,0,0,0,963.083,330.286Z" transform="translate(-50.774)" fill="#fff"/><g transform="translate(865.252 309.337)"><path d="M930.4,344.244a1.588,1.588,0,0,1-1.108-.459,1.461,1.461,0,0,1-.193-.238,1.493,1.493,0,0,1-.144-.271,1.564,1.564,0,0,1-.091-.293,1.563,1.563,0,0,1,0-.613,1.564,1.564,0,0,1,.091-.293,1.493,1.493,0,0,1,.144-.271,1.458,1.458,0,0,1,.193-.238,1.568,1.568,0,0,1,2.216,0,1.452,1.452,0,0,1,.193.238,1.7,1.7,0,0,1,.146.271,1.555,1.555,0,0,1,.088.293,1.563,1.563,0,0,1,0,.613,1.555,1.555,0,0,1-.088.293,1.7,1.7,0,0,1-.146.271,1.454,1.454,0,0,1-.193.238A1.588,1.588,0,0,1,930.4,344.244Z" transform="translate(-914.46 -341.11)" fill="#fff"/><path d="M894.621,365.909a1.57,1.57,0,0,1,0-2.216h0a1.565,1.565,0,0,1,2.216,0h0a1.565,1.565,0,0,1,0,2.216h0a1.572,1.572,0,0,1-1.108.459h0A1.572,1.572,0,0,1,894.621,365.909Zm4.792-4.792a1.564,1.564,0,0,1,0-2.216h0a1.569,1.569,0,0,1,2.216,0h0a1.569,1.569,0,0,1,0,2.216h0a1.561,1.561,0,0,1-1.108.459h0A1.561,1.561,0,0,1,899.412,361.117Z" transform="translate(-889.373 -353.653)" fill="#fff"/><path d="M878.4,396.246a1.648,1.648,0,0,1-.307-.03,1.563,1.563,0,0,1-.293-.091,1.5,1.5,0,0,1-.271-.144,1.5,1.5,0,0,1-.431-.431,1.5,1.5,0,0,1-.144-.271,1.568,1.568,0,0,1-.091-.293,1.654,1.654,0,0,1-.03-.307,1.588,1.588,0,0,1,.459-1.108,1.456,1.456,0,0,1,.238-.193,1.71,1.71,0,0,1,.271-.146,1.554,1.554,0,0,1,.293-.088,1.566,1.566,0,0,1,1.874,1.536,1.648,1.648,0,0,1-.03.307,1.555,1.555,0,0,1-.088.293,1.707,1.707,0,0,1-.146.271,1.454,1.454,0,0,1-.193.238A1.588,1.588,0,0,1,878.4,396.246Z" transform="translate(-876.83 -378.741)" fill="#fff"/></g><g transform="translate(875.2 313.482)"><path d="M945.4,359.244a1.588,1.588,0,0,1-1.108-.459,1.454,1.454,0,0,1-.193-.238,1.492,1.492,0,0,1-.144-.271,1.565,1.565,0,0,1-.091-.293,1.563,1.563,0,0,1,0-.613,1.565,1.565,0,0,1,.091-.293,1.492,1.492,0,0,1,.144-.271,1.454,1.454,0,0,1,.193-.238,1.568,1.568,0,0,1,2.216,0,1.461,1.461,0,0,1,.193.238,1.7,1.7,0,0,1,.146.271,1.556,1.556,0,0,1,.088.293,1.563,1.563,0,0,1,0,.613,1.556,1.556,0,0,1-.088.293,1.7,1.7,0,0,1-.146.271,1.461,1.461,0,0,1-.193.238A1.583,1.583,0,0,1,945.4,359.244Z" transform="translate(-935.263 -356.11)" fill="#fff"/><path d="M923.927,381.146a1.57,1.57,0,0,1-.544-2.15h0a1.567,1.567,0,0,1,2.15-.542h0a1.563,1.563,0,0,1,.542,2.147h0a1.564,1.564,0,0,1-1.346.766h0A1.567,1.567,0,0,1,923.927,381.146Zm2.855-4.792a1.566,1.566,0,0,1-.542-2.147h0a1.567,1.567,0,0,1,2.147-.544h0a1.57,1.57,0,0,1,.544,2.15h0a1.566,1.566,0,0,1-1.349.763h0A1.574,1.574,0,0,1,926.781,376.354Z" transform="translate(-920.307 -368.652)" fill="#fff"/><path d="M914.4,411.244a1.588,1.588,0,0,1-1.108-.459,1.453,1.453,0,0,1-.193-.238,1.5,1.5,0,0,1-.144-.271,1.564,1.564,0,0,1-.091-.293,1.563,1.563,0,0,1,0-.613,1.564,1.564,0,0,1,.091-.293,1.5,1.5,0,0,1,.144-.271,1.454,1.454,0,0,1,.193-.238,1.568,1.568,0,0,1,2.216,0,1.457,1.457,0,0,1,.193.238,1.7,1.7,0,0,1,.146.271,1.555,1.555,0,0,1,.088.293,1.563,1.563,0,0,1,0,.613,1.555,1.555,0,0,1-.088.293,1.7,1.7,0,0,1-.146.271,1.456,1.456,0,0,1-.193.238A1.583,1.583,0,0,1,914.4,411.244Z" transform="translate(-912.83 -393.74)" fill="#fff"/></g><g transform="translate(860.83 304.915)"><path d="M914.4,328.244a1.566,1.566,0,0,1-1.567-1.567,1.649,1.649,0,0,1,.03-.307,1.564,1.564,0,0,1,.091-.293,1.5,1.5,0,0,1,.144-.271,1.454,1.454,0,0,1,.193-.238,1.568,1.568,0,0,1,2.216,0,1.457,1.457,0,0,1,.193.238,1.7,1.7,0,0,1,.146.271,1.555,1.555,0,0,1,.088.293,1.649,1.649,0,0,1,.03.307,1.588,1.588,0,0,1-.459,1.108,1.457,1.457,0,0,1-.238.193,1.5,1.5,0,0,1-.271.144,1.383,1.383,0,0,1-.293.091A1.649,1.649,0,0,1,914.4,328.244Z" transform="translate(-898.46 -325.11)" fill="#fff"/><path d="M878.382,340.667a1.567,1.567,0,0,1,.544-2.147h0a1.563,1.563,0,0,1,2.147.542h0a1.567,1.567,0,0,1-.542,2.15h0a1.566,1.566,0,0,1-.8.221h0A1.569,1.569,0,0,1,878.382,340.667Zm4.792-2.855a1.57,1.57,0,0,1,.542-2.15h0a1.57,1.57,0,0,1,2.15.544h0a1.567,1.567,0,0,1-.544,2.147h0a1.54,1.54,0,0,1-.8.221h0A1.562,1.562,0,0,1,883.174,337.812Z" transform="translate(-873.372 -332.586)" fill="#fff"/><path d="M862.4,359.246a1.566,1.566,0,0,1-1.567-1.567,1.653,1.653,0,0,1,.03-.307,1.389,1.389,0,0,1,.091-.293,1.5,1.5,0,0,1,.144-.271,1.457,1.457,0,0,1,.193-.238,1.588,1.588,0,0,1,1.415-.428,1.382,1.382,0,0,1,.293.091,1.493,1.493,0,0,1,.271.144,1.453,1.453,0,0,1,.238.193,1.568,1.568,0,0,1,0,2.216,1.453,1.453,0,0,1-.238.193,1.5,1.5,0,0,1-.271.144,1.38,1.38,0,0,1-.293.091A1.648,1.648,0,0,1,862.4,359.246Z" transform="translate(-860.83 -347.545)" fill="#fff"/></g></g><g transform="translate(539.042 66.067) rotate(45)" opacity="0"><rect width="27" height="2" transform="translate(316 624)" fill="#fff"/><rect width="27" height="2" transform="translate(330.5 611.5) rotate(90)" fill="#fff"/></g></g></svg>