<svg xmlns="http://www.w3.org/2000/svg" width="59.459" height="51.619" viewBox="0 0 59.459 51.619">
  <g id="_" data-name="“" transform="translate(12676.609 11182.614)">
    <g id="グループ_1623" data-name="グループ 1623">
      <path id="パス_3829" data-name="パス 3829" d="M33.287-135.561a10.772,10.772,0,0,1-3.377,8.081,11.68,11.68,0,0,1-8.442,3.256,10.648,10.648,0,0,1-8.2-3.739A13.506,13.506,0,0,1,9.89-137.37a25.8,25.8,0,0,1,1.869-9.045,60.714,60.714,0,0,1,4.945-10.01,103.35,103.35,0,0,1,7-10.071q3.92-5.005,7.9-9.347l3.256,2.653a80.2,80.2,0,0,0-9.045,12.9A34.494,34.494,0,0,0,21.468-147.5a13.331,13.331,0,0,1,8.322,3.618A10.867,10.867,0,0,1,33.287-135.561Zm34.614,0a10.772,10.772,0,0,1-3.377,8.081,11.68,11.68,0,0,1-8.442,3.256,10.648,10.648,0,0,1-8.2-3.739A13.506,13.506,0,0,1,44.5-137.37a25.8,25.8,0,0,1,1.869-9.045,60.715,60.715,0,0,1,4.945-10.01,103.351,103.351,0,0,1,7-10.071q3.92-5.005,7.9-9.347l3.136,2.653a77.251,77.251,0,0,0-8.985,12.9A35.076,35.076,0,0,0,56.082-147.5a13.331,13.331,0,0,1,8.322,3.618A10.867,10.867,0,0,1,67.9-135.561Z" transform="translate(-12686.499 -11006.771)" fill="#ddd"/>
    </g>
  </g>
</svg>
